# xmcd
#
# Track frame offsets: 
#        150
#        11407
#        23850
#        36445
#        49700
#        63485
#        76312
#        88575
#        102195
#        115065
#        128520
#        139955
#        152212
#        163690
#        175597
#        187842
#        199597
#        259057
#
# Disc length: 3619 seconds
#
# Revision: 4
# Processed by: cddbd v1.5.2PL0 Copyright (c) Steve Scherf et al.
# Submitted via: ExactAudioCopy v1.0b3
#
DISCID=e30e2112
DTITLE=Sonny Boy Williamson - King Biscuit Time
DYEAR=1989
DGENRE=Blues
TTITLE0=Do It If You Wanna
TTITLE1=Cool, Cool Blues
TTITLE2=Come On Back Home
TTITLE3=Stop Crying
TTITLE4=Eyesight To The Blind
TTITLE5=West Memphis Blues
TTITLE6=I Cross My Heart
TTITLE7=Crazy About You Baby
TTITLE8=Nine Below Zero
TTITLE9=Mighty Long Time
TTITLE10=She Brought Life Back To The Dead
TTITLE11=Stop Now Baby
TTITLE12=Mr. Downchild
TTITLE13=Sonny Boy's Christmas Blues
TTITLE14=Pontiac Blues
TTITLE15=Too Close Together
TTITLE16=Radio Program (KFFA) - V-8 Ford, Stormy Monday, Right Now, Co
TTITLE16=me Go with Me
TTITLE17=Dust My Broom
EXTD=Arhoolie CD 310\n\nSubmitted 6/30/97\n[Jmccoy@efn.org]
EXTT0=
EXTT1=
EXTT2=
EXTT3=
EXTT4=
EXTT5=
EXTT6=
EXTT7=
EXTT8=
EXTT9=
EXTT10=
EXTT11=
EXTT12=
EXTT13=
EXTT14=
EXTT15=
EXTT16=
EXTT17=
PLAYORDER=
